<?xml version="1.0" encoding="UTF-8"?>
<svg id="Layer_1" data-name="Layer 1" xmlns="http://www.w3.org/2000/svg" version="1.1" viewBox="0 0 1201.9 199.9">
  <defs>
    <style>
      .cls-1 {
        fill: #003b95;
        stroke-width: 0px;
      }
    </style>
  </defs>
  <path class="cls-1" d="M471.5,18.3c0-10.1,8.2-18.3,18.2-18.3s18.3,8.2,18.3,18.3-8.2,18.3-18.3,18.3c-10.1.1-18.2-8.1-18.2-18.3Z"/>
  <path class="cls-1" d="M778,158.5c10.1,0,18.3-8.2,18.3-18.3s-8.2-18.3-18.3-18.3-18.2,8.2-18.2,18.3c-.1,10.1,8.1,18.3,18.2,18.3Z"/>
  <path class="cls-1" d="M171.6,44.9c-33.3,0-57.4,24-57.4,57s24.2,57,57.4,57,57.7-24,57.7-57c0-33-24.3-57-57.7-57ZM171.6,132.3c-15.7,0-26.7-12.5-26.7-30.4s10.9-30.3,26.7-30.3,26.9,12.5,26.9,30.3-10.8,30.4-26.9,30.4Z"/>
  <path class="cls-1" d="M436.1,104.8c-1.3-2.4-2.8-4.5-4.3-6.1l-1-1.1,1.1-1c1.5-1.6,3.1-3.5,4.6-5.7l29.4-43.7h-35.7l-22.2,34.1c-1.3,1.8-3.8,2.8-7.6,2.8h-5V19.5c0-12.9-8-14.7-16.7-14.7h-14.9v152.5h31.6v-45.7h3c3.6,0,6.1.4,7.2,2.4l17.4,32.9c4.9,8.9,9.7,10.5,18.8,10.5h24.2l-18-29.8-11.9-22.8Z"/>
  <path class="cls-1" d="M589.5,44.6c-16.1,0-26.3,7.2-32.1,13.2l-1.9,2-.7-2.7c-1.7-6.4-7.4-10-15.9-10h-14.2v110.1h31.5v-50.7c0-4.9.7-9.3,2-13.2,3.5-11.9,13.2-19.3,25.4-19.3s13.6,5.2,13.6,18.6v47.9c0,11.4,5.3,16.7,16.7,16.7h14.9v-70c0-27.8-13.6-42.6-39.3-42.6Z"/>
  <path class="cls-1" d="M490.1,47.1h-14.9v110.1h31.4V63.9c0-11.3-5.4-16.8-16.5-16.8Z"/>
  <path class="cls-1" d="M294.9,44.9c-33.3,0-57.5,24-57.5,57s24.2,57,57.5,57,57.7-24,57.7-57c0-33-24.3-57-57.7-57ZM294.9,132.3c-15.7,0-26.7-12.5-26.7-30.4s11-30.3,26.7-30.3,26.9,12.5,26.9,30.3c-.1,18.1-10.9,30.4-26.9,30.4Z"/>
  <path class="cls-1" d="M967.6,44.9c-33.3,0-57.5,24-57.5,57s24.2,57,57.5,57,57.7-24,57.7-57c0-33-24.3-57-57.7-57ZM967.6,132.3c-15.7,0-26.7-12.5-26.7-30.4s11-30.3,26.7-30.3,26.9,12.5,26.9,30.3-10.8,30.4-26.9,30.4Z"/>
  <path class="cls-1" d="M732.8,46.9c-6,0-10.5,2.4-12.8,6.7l-.8,1.7-1.5-1.3c-5.1-4.4-14.2-9.6-28.9-9.6-29.3,0-49.1,22-49.1,54.8s20.5,55.6,49.7,55.6,17.9-2.3,24.2-7.1l2.4-1.8v3.1c0,14.7-9.5,22.8-26.8,22.8s-16-2-21.1-3.9c-6.7-2-10.6-.4-13.3,6.3l-6,15.2,2.2,1.2c11.1,5.8,25.4,9.3,38.4,9.3,26.7,0,58-13.7,58-52.2V46.7h-14.6v.2ZM694.9,127.4c-17.1,0-23.2-15-23.2-29s1.5-26.3,21.6-26.3,23.3,2.8,23.3,27.4c0,23.1-11.8,27.9-21.7,27.9Z"/>
  <path class="cls-1" d="M87.3,79.1l-4.6-2.6,4-3.4c4.7-4,12.6-13.1,12.6-28.8,0-24-18.6-39.4-47.4-39.4H15.4C6.9,5.2,0,12.1,0,20.7v136h52.7c32,0,52.6-17.4,52.6-44.4-.1-14.5-6.8-26.9-18-33.2ZM29.2,40.6c0-7,3-10.4,9.5-10.8h13.1c11.2,0,17.9,6.7,17.9,18s-4.6,18.5-17.5,18.5h-23v-25.7ZM54.7,131h-25.5v-30.5c0-6.5,2.5-9.9,8.1-10.7h17.4c12.4,0,20.5,7.8,20.5,20.5s-7.9,20.7-20.5,20.7Z"/>
  <path class="cls-1" d="M1165.5,45c-13,0-25.6,6.1-33.7,16.3l-2.3,2.9-1.8-3.2c-5.8-10.6-15.8-16-29.7-16s-24.4,8.1-28.9,13l-3,3.2-1.1-4.2c-1.7-6.1-7.1-9.5-15.3-9.5h-13.2v109.7h29.8v-48.4c0-4.3.5-8.4,1.6-12.8,2.9-11.7,10.7-24.3,23.9-23,8.2.8,12.1,7.1,12.1,19.3v65h30.2v-48.4c0-5.3.5-9.3,1.7-13.2,2.4-11.2,10.6-22.6,23.4-22.6s12.6,5.2,12.6,19.3v49c0,11.1,4.9,16,16,16h14.1v-70c.2-28.2-12.2-42.4-36.4-42.4Z"/>
  <path class="cls-1" d="M892.8,119.1c0,.1-13,13.7-30,13.7s-31.1-9.5-31.1-30.7,12.1-31.1,29.5-31.1,12.1,2,13,5.4v.6c2.4,7.7,9.4,8.1,10.8,8.1h16.4v-14.3c0-18.9-24.1-25.8-40.3-25.8-34.6,0-59.8,24.1-59.8,57.3s24.9,57.3,59.2,57.3,47-20.8,47-20.8l-13-21.6-1.7,1.9Z"/>
</svg>