<?xml version="1.0" encoding="utf-8"?>
<!-- Generator: Adobe Illustrator 23.0.1, SVG Export Plug-In . SVG Version: 6.00 Build 0)  -->
<svg version="1.1" id="Layer_1" xmlns="http://www.w3.org/2000/svg" xmlns:xlink="http://www.w3.org/1999/xlink" x="0px" y="0px"
	 viewBox="0 0 194.53 98.44" style="enable-background:new 0 0 194.53 98.44;" xml:space="preserve">
<g>
	<path d="M74.09,53.37c-0.67,0-1.88,1.39-1.88,1.97l0,24.94c0,0.63,1.08,1.88,1.75,1.88h3c5.37,0,10.03-2.87,10.48-10.34
		c0.13-2.42,0.13-5.55,0-8.01c-0.4-7.3-4.97-10.43-10.66-10.43H74.09z M63.52,82.52h1.7c0.63,0,2.51-1.79,2.51-2.46l0-24.45
		c0-0.67-1.88-2.46-2.51-2.46h-1.7l0-1.61l13.34,0c7.61,0,15.76,6.54,15.76,16.21c0,9.67-7.79,16.39-15.67,16.39H63.52L63.52,82.52z
		"/>
	<path d="M99.84,52.56c1.57,0,2.73,1.03,2.73,2.69c0,1.66-1.16,2.73-2.73,2.73c-1.57,0-2.78-1.07-2.78-2.73
		C97.06,53.59,98.27,52.56,99.84,52.56 M102.21,62.91l0,17.37c0,0.72,1.75,2.24,2.33,2.24h1.3l0,1.61H94.64v-1.61h1.3
		c0.63,0,2.33-1.52,2.33-2.24l0-13.52c0-0.67-1.7-2.24-2.33-2.24h-1.3v-1.61H102.21z"/>
	<path d="M112.26,68.68c-0.09,1.25-0.09,2.15,0,3.4c0.22,2.55,1.79,4.43,5.24,4.43c3.45,0,4.88-1.79,5.1-4.48
		c0.09-1.16,0.09-2.19,0-3.4c-0.18-2.51-1.7-4.39-5.15-4.39C114.01,64.25,112.48,66.09,112.26,68.68 M113.56,85.65
		c-2.42,0.81-4.07,1.88-4.07,3.85c0,1.88,1.97,3.31,7.79,3.31c5.37,0,8.55-1.21,8.55-3.67c0-1.79-1.34-2.33-3.63-2.33
		C115.57,86.82,113.6,86.41,113.56,85.65 M117.5,78.4h-3.04c-1.97,0.18-2.87,0.94-2.87,2.19c0,1.21,0.85,1.97,2.55,2.06
		c2.64,0.13,5.24,0.22,8.24,0.27c3.36,0.05,5.95,1.21,5.95,4.84c0,4.88-5.1,6.67-11.01,6.67c-6.18,0-10.75-1.39-10.75-4.84
		c0-2.73,3-3.89,5.28-4.48c-2.06-0.58-4.12-1.52-4.12-3.72c0-2.6,3.63-3.9,6.58-4.21c-2.24-0.54-6.18-2.55-6.18-7.03
		c0-4.7,4.43-7.7,9.31-7.7c2.6,0,4.97,0.85,6.67,2.37c1.03-2.33,2.24-3.89,4.57-5.24h1.03l0,5.78h-5.01c1.16,1.3,1.88,3.05,1.88,5.1
		C126.59,75.31,122.69,78.4,117.5,78.4"/>
	<path d="M136.25,52.56c1.57,0,2.73,1.03,2.73,2.69c0,1.66-1.16,2.73-2.73,2.73c-1.57,0-2.78-1.07-2.78-2.73
		C133.47,53.59,134.68,52.56,136.25,52.56 M138.62,62.91l0,17.37c0,0.72,1.75,2.24,2.33,2.24h1.3v1.61l-11.19,0v-1.61h1.3
		c0.63,0,2.33-1.52,2.33-2.24l0-13.52c0-0.67-1.7-2.24-2.33-2.24h-1.3v-1.61H138.62z"/>
	<path d="M156.71,81.4c-0.94,1.03-3.9,3.22-6.18,3.22c-2.37,0-4.52-1.75-4.52-4.93l0-14.82h-3.76v-1.34
		c2.64-2.15,4.21-3.63,6.27-6.18h1.3l0,5.55h6.22l0,1.97h-6.09l0,14.15c0,1.57,0.9,2.6,2.73,2.6c1.07,0,2.6-0.85,3.27-1.34
		L156.71,81.4z"/>
	<path d="M170.86,72.71l-5.06,1.3c-2.64,0.67-3.54,2.1-3.54,4.21c0,1.83,1.3,3.4,3.4,3.4c2.06,0,4.3-2.15,5.19-3.72V72.71z
		 M171.49,84.13l-0.54-4.25c-1.7,2.19-3.94,4.66-7.07,4.66c-2.91,0-5.37-2.33-5.37-5.78c0-4.21,3.85-5.69,6.85-6.31l5.46-1.12
		l0.04-2.64c0.04-3-1.16-4.7-4.97-4.7c-3.63,0-4.79,2.33-3.22,5.95h-1.52l-2.82-4.25c1.75-1.79,4.21-3.27,8.51-3.27
		c4.57,0,7.92,2.15,7.92,6.31l0,11.55c0,0.72,1.75,2.24,2.33,2.24h1.25v1.61H171.49z"/>
	<path d="M185.9,49.61l0,30.67c0,0.72,1.75,2.24,2.33,2.24h1.3v1.61h-11.19v-1.61h1.3c0.63,0,2.33-1.52,2.33-2.24l0-24.89
		c0-0.67-1.7-2.24-2.33-2.24h-1.3l0-1.61L185.9,49.61z"/>
	<path d="M9.41,11.6c0-0.67-1.88-2.46-2.51-2.46H5.28l0-1.61l9.5,0l9.77,24.6h0.22l10.3-24.6l8.51,0l0,1.61l-1.61,0
		c-0.63,0-2.51,1.79-2.51,2.46l0,24.46c0,0.67,1.88,2.46,2.51,2.46h1.61l0,1.61l-12.63,0l0-1.61h1.61c0.63,0,2.51-1.79,2.51-2.46
		l0-23.74L23.2,40.73l-11.87-28.9l0,24.24c0,0.67,1.88,2.46,2.51,2.46h1.61l0,1.61l-10.17,0l0-1.61H6.9c0.63,0,2.51-1.79,2.51-2.46
		L9.41,11.6z"/>
	<path d="M57.32,26.21c0.58-3.27,0.04-6.23-3.58-6.23c-4.21,0-6.27,3.36-6.27,8.33c0,4.7,3,8.6,7.84,8.6c3.67,0,5.24-1.3,6.72-3.76
		h1.3c-1.39,4.61-4.21,7.53-9.5,7.53c-5.87,0-9.68-5.02-9.68-11.02c0-6.81,4.52-11.29,10.08-11.29c3.31,0,5.56,1.03,7.48,2.96
		l-3.09,4.79L57.32,26.21z"/>
	<path d="M99.96,13.98c1.57,0,2.73-1.08,2.73-2.73c0-1.66-1.17-2.69-2.73-2.69s-2.78,1.03-2.78,2.69
		C97.19,12.9,98.4,13.98,99.96,13.98"/>
	<path d="M129.98,38.53c-0.63,0-2.33-1.52-2.33-2.24l0-11.78c0-3.63-2.6-6.05-5.87-6.05c-3.81,0-5.78,2.2-8.33,4.79l-0.81-4.35
		l-6.68,0v1.61h1.3c0.63,0,2.33,1.57,2.33,2.24l0,13.53c0,0.72-1.7,2.24-2.33,2.24h-1.3h-1.3c-0.58,0-2.33-1.52-2.33-2.24l0-17.38
		l-7.57,0v1.61h1.3c0.63,0,2.33,1.57,2.33,2.24l0,13.53c0,0.72-1.7,2.24-2.33,2.24h-1.3h-1.08c-0.67,0-3.32-2.02-3.85-2.73
		L78.42,20.61l7.93-8.51c0.45-0.49,3.54-2.96,4.17-2.96h1.57V7.53l-11.83,0l0,1.61h1.57c0.63,0,2.46,2.24,1.97,2.82L72.14,24.96
		l0-13.35c0-0.67,1.88-2.46,2.51-2.46l1.61,0V7.53l-12.72,0l0,1.61h1.61c0.63,0,2.51,1.79,2.51,2.46l0,24.46
		c0,0.67-1.88,2.46-2.51,2.46h-1.61v1.61l12.72,0l0-1.61h-1.61c-0.63,0-2.51-1.79-2.51-2.46l0-8.65l3.32-3.58l11.29,16.31l8.02,0
		h11.2h11.07v-1.61h-1.21c-0.63,0-2.33-1.52-2.33-2.24l0-10.8c0-1.43,3.9-4.39,6.9-4.39c2.29,0,3.36,1.57,3.36,3.63l0,11.56
		c0,0.72-1.7,2.24-2.33,2.24h-1.21v1.61l10.84,0v-1.61H129.98z"/>
	<path d="M133.92,32.71c0,1.97,2.87,6.23,7.44,6.23c2.64,0,4.12-0.94,4.12-2.91c0-2.37-2.11-3.18-3.99-3.99
		c-1.48-0.63-2.69-1.12-4.39-1.88c-2.55-1.16-4.48-2.87-4.48-5.78c0-3.81,2.29-6,6.36-6c2.33,0,3.63,1.12,5.24,1.12
		c0.63,0,0.99-0.13,1.16-0.58h1.16l0,6.54h-1.3c0-1.75-2.46-5.47-6.41-5.47c-2.46,0-3.63,1.08-3.63,2.82c0,1.84,1.25,2.51,3.45,3.45
		c1.61,0.67,2.82,1.21,4.57,1.88c2.28,0.9,4.88,2.73,4.88,6.14c0,4.03-2.78,6.41-6.76,6.41c-2.69,0-4.26-1.25-6.09-1.25
		c-0.85,0-1.07,0.22-1.61,0.72h-1.03l0-7.44H133.92z"/>
	<path d="M163.31,26.08c0.36-3-0.13-6.05-4.26-6.05c-4.39,0-6.14,3.63-6.27,6.94L163.31,26.08z M149.42,29.53
		c0-6.27,4.26-11.16,9.72-11.11c4.79,0.04,7.48,3.31,7.71,7.44l0.09,1.52l-14.11,1.12c0,4.26,2.96,8.47,7.75,8.47
		c3.63,0,5.29-1.39,6.59-3.81h1.3c-1.39,4.61-4.03,7.48-9.23,7.48C153.32,40.64,149.42,35.48,149.42,29.53"/>
	<path d="M170.56,22.94c-0.31-0.72-2.2-2.42-2.73-2.42h-0.94v-1.61l11.25,0v1.61h-1.3c-0.58,0-1.88,1.48-1.88,2.29l4.93,11.33
		l4.84-11.29c0.05-0.85-1.25-2.33-1.84-2.33h-1.3v-1.61l8.47,0l0,1.61h-0.99c-0.49,0-2.02,1.61-2.46,2.33l-7.21,16.26l-5.33,11.74
		l-1.93-0.9l5.64-11.56L170.56,22.94z"/>
</g>
</svg>
